<?xml version="1.0" encoding="UTF-8"?>
<!DOCTYPE svg PUBLIC "-//W3C//DTD SVG 1.1//EN" "http://www.w3.org/Graphics/SVG/1.1/DTD/svg11.dtd">
<svg xmlns="http://www.w3.org/2000/svg" version="1.1" viewBox="0 0 25 25" stroke="none">
	<rect width="100%" height="100%" fill="rgba(255,255,255,0.001)"/>
	<path d="M0,0h7v1h-7z M13,0h1v2h-1z M16,0h1v2h-1z M18,0h7v1h-7z M0,1h1v6h-1z M6,1h1v6h-1z M12,1h1v1h-1z M14,1h1v3h-1z M15,1h1v1h-1z M18,1h1v6h-1z M24,1h1v6h-1z M2,2h3v3h-3z M8,2h1v6h-1z M11,2h1v4h-1z M20,2h3v3h-3z M9,3h1v3h-1z M12,3h2v1h-2z M15,3h1v1h-1z M16,4h1v1h-1z M12,5h1v2h-1z M14,5h2v1h-2z M1,6h5v1h-5z M10,6h1v12h-1z M14,6h1v1h-1z M16,6h1v1h-1z M19,6h5v1h-5z M15,7h1v2h-1z M0,8h1v1h-1z M2,8h3v3h-3z M5,8h2v1h-2z M11,8h4v1h-4z M18,8h5v1h-5z M1,9h1v1h-1z M9,9h1v1h-1z M11,9h1v2h-1z M17,9h1v2h-1z M19,9h1v1h-1z M21,9h2v1h-2z M0,10h1v1h-1z M5,10h2v1h-2z M8,10h1v1h-1z M12,10h1v3h-1z M14,10h2v1h-2z M18,10h1v3h-1z M23,10h2v1h-2z M3,11h1v1h-1z M14,11h1v1h-1z M24,11h1v1h-1z M0,12h3v2h-3z M6,12h3v1h-3z M13,12h1v1h-1z M15,12h3v1h-3z M20,12h4v1h-4z M3,13h2v3h-2z M5,13h1v1h-1z M16,13h1v2h-1z M21,13h1v1h-1z M0,14h1v3h-1z M2,14h1v1h-1z M6,14h1v1h-1z M11,14h1v3h-1z M12,14h1v1h-1z M15,14h1v3h-1z M20,14h1v8h-1z M22,14h3v1h-3z M8,15h2v1h-2z M14,15h1v1h-1z M18,15h2v2h-2z M23,15h1v1h-1z M2,16h1v1h-1z M6,16h1v1h-1z M16,16h1v5h-1z M17,16h1v1h-1z M21,16h2v2h-2z M24,16h1v9h-1z M8,17h2v1h-2z M12,17h2v1h-2z M0,18h7v1h-7z M9,18h1v4h-1z M13,18h2v1h-2z M18,18h1v1h-1z M22,18h2v1h-2z M0,19h1v6h-1z M6,19h1v6h-1z M8,19h1v4h-1z M12,19h2v1h-2z M21,19h1v4h-1z M23,19h1v3h-1z M2,20h3v3h-3z M10,20h1v3h-1z M12,20h1v1h-1z M14,20h2v1h-2z M17,20h2v2h-2z M19,20h1v1h-1z M22,20h1v1h-1z M15,21h1v4h-1z M11,22h1v3h-1z M12,22h1v1h-1z M19,22h1v3h-1z M9,23h1v1h-1z M14,23h1v1h-1z M16,23h3v1h-3z M20,23h1v2h-1z M1,24h5v1h-5z M8,24h1v1h-1z M10,24h1v1h-1z M17,24h2v1h-2z M21,24h3v1h-3z" fill="#000000"/>
</svg>
